SRRun01_grf
version=1
nRows=30
nColumns=19
inDegrees=no
endheader
time	ground_force_r_vx	ground_force_r_vy	ground_force_r_vz	ground_force_r_px	ground_force_r_py	ground_force_r_pz	ground_force_r_mx	ground_force_r_my	ground_force_r_mz	ground_force_l_vx	ground_force_l_vy	ground_force_l_vz	ground_force_l_px	ground_force_l_py	ground_force_l_pz	ground_force_l_mx	ground_force_l_my	ground_force_l_mz
    139.99600000	    -49.54875786	    999.57477788	    -34.66657986	      0.79540092	      0.00000000	     -0.12839187	      0.00000236	    -20.75330947	      0.00005950	      0.00000000	      0.00000000	      0.00000000	      0.00000000	      0.00000000	      0.00000000	      0.00000000	      0.00000000	      0.00000000
    139.99700000	    -94.82482519	   1023.76527376	    -45.24734806	      0.79202694	      0.00000000	     -0.12987260	      0.00000377	    -12.84081806	      0.00005652	      0.00000000	      0.00000000	      0.00000000	      0.00000000	      0.00000000	      0.00000000	      0.00000000	      0.00000000	      0.00000000
    139.99800000	   -136.79280283	   1047.04271122	    -54.86632451	      0.78853735	      0.00000000	     -0.13131110	      0.00000506	     -5.22628457	      0.00005364	      0.00000000	      0.00000000	      0.00000000	      0.00000000	      0.00000000	      0.00000000	      0.00000000	      0.00000000	      0.00000000
    139.99900000	   -173.68422024	   1068.64068564	    -62.90550198	      0.78495880	      0.00000000	     -0.13268106	      0.00000617	      1.74240695	      0.00005090	      0.00000000	      0.00000000	      0.00000000	      0.00000000	      0.00000000	      0.00000000	      0.00000000	      0.00000000	      0.00000000
    140.00000000	   -204.01458881	   1087.93514799	    -68.76560114	      0.78132421	      0.00000000	     -0.13395996	      0.00000708	      7.72596696	      0.00004832	      0.00000000	      0.00000000	      0.00000000	      0.00000000	      0.00000000	      0.00000000	      0.00000000	      0.00000000	      0.00000000
    140.00100000	   -226.70740766	   1104.49016224	    -71.90883083	      0.77767442	      0.00000000	     -0.13512999	      0.00000775	     12.41657796	      0.00004596	      0.00000000	      0.00000000	      0.00000000	      0.00000000	      0.00000000	      0.00000000	      0.00000000	      0.00000000	      0.00000000
    140.00200000	   -241.18872291	   1118.08369781	    -71.90175678	      0.77405856	      0.00000000	     -0.13617876	      0.00000819	     15.56101635	      0.00004387	      0.00000000	      0.00000000	      0.00000000	      0.00000000	      0.00000000	      0.00000000	      0.00000000	      0.00000000	      0.00000000
    140.00300000	   -247.44178723	   1128.71117433	    -68.45538676	      0.77053338	      0.00000000	     -0.13709973	      0.00000840	     16.98229871	      0.00004210	      0.00000000	      0.00000000	      0.00000000	      0.00000000	      0.00000000	      0.00000000	      0.00000000	      0.00000000	      0.00000000
    140.00400000	   -246.01479676	   1136.56776820	    -61.45913797	      0.76716153	      0.00000000	     -0.13789227	      0.00000841	     16.59813620	      0.00004069	      0.00000000	      0.00000000	      0.00000000	      0.00000000	      0.00000000	      0.00000000	      0.00000000	      0.00000000	      0.00000000
    140.00500000	   -237.97923871	   1142.01362956	    -51.00495731	      0.76400915	      0.00000000	     -0.13856126	      0.00000825	     14.43469064	      0.00003970	      0.00000000	      0.00000000	      0.00000000	      0.00000000	      0.00000000	      0.00000000	      0.00000000	      0.00000000	      0.00000000
    140.00600000	   -224.84142845	   1145.52828208	    -37.39808032	      0.76114239	      0.00000000	     -0.13911608	      0.00000795	     10.63436820	      0.00003914	      0.00000000	      0.00000000	      0.00000000	      0.00000000	      0.00000000	      0.00000000	      0.00000000	      0.00000000	      0.00000000
    140.00700000	   -208.41466291	   1147.66108450	    -21.15204555	      0.75862318	      0.00000000	     -0.13956925	      0.00000755	      5.45649445	      0.00003902	      0.00000000	      0.00000000	      0.00000000	      0.00000000	      0.00000000	      0.00000000	      0.00000000	      0.00000000	      0.00000000
    140.00800000	   -190.66353714	   1148.98377846	     -2.96738972	      0.75650423	      0.00000000	     -0.13993494	      0.00000709	     -0.73024915	      0.00003933	      0.00000000	      0.00000000	      0.00000000	      0.00000000	      0.00000000	      0.00000000	      0.00000000	      0.00000000	      0.00000000
    140.00900000	   -173.53499249	   1150.04928154	     16.30467009	      0.75482384	      0.00000000	     -0.14022770	      0.00000659	     -7.46450403	      0.00004000	      0.00000000	      0.00000000	      0.00000000	      0.00000000	      0.00000000	      0.00000000	      0.00000000	      0.00000000	      0.00000000
    140.01000000	   -158.79227884	   1151.35868305	     35.71087440	      0.75360097	      0.00000000	     -0.14046182	      0.00000609	    -14.21825629	      0.00004098	      0.00000000	      0.00000000	      0.00000000	      0.00000000	      0.00000000	      0.00000000	      0.00000000	      0.00000000	      0.00000000
    140.01100000	   -147.86793286	   1153.33657002	     54.25341343	      0.75283137	      0.00000000	     -0.14065118	      0.00000562	    -20.43144474	      0.00004214	      0.00000000	      0.00000000	      0.00000000	      0.00000000	      0.00000000	      0.00000000	      0.00000000	      0.00000000	      0.00000000
    140.01200000	   -141.75001221	   1156.31383170	     70.95232653	      0.75248518	      0.00000000	     -0.14080926	      0.00000518	    -25.55333880	      0.00004340	      0.00000000	      0.00000000	      0.00000000	      0.00000000	      0.00000000	      0.00000000	      0.00000000	      0.00000000	      0.00000000
    140.01300000	   -140.91238135	   1160.51704265	     84.90833848	      0.75250628	      0.00000000	     -0.14094910	      0.00000478	    -29.08792425	      0.00004464	      0.00000000	      0.00000000	      0.00000000	      0.00000000	      0.00000000	      0.00000000	      0.00000000	      0.00000000	      0.00000000
    140.01400000	   -145.29519277	   1166.06412517	     95.36119944	      0.75281378	      0.00000000	     -0.14108282	      0.00000443	    -30.63974008	      0.00004579	      0.00000000	      0.00000000	      0.00000000	      0.00000000	      0.00000000	      0.00000000	      0.00000000	      0.00000000	      0.00000000
    140.01500000	   -154.33635773	   1172.96669405	    101.73868292	      0.75330569	      0.00000000	     -0.14122105	      0.00000413	    -29.95596013	      0.00004677	      0.00000000	      0.00000000	      0.00000000	      0.00000000	      0.00000000	      0.00000000	      0.00000000	      0.00000000	      0.00000000
    140.01600000	   -167.04940247	   1181.13968995	    103.69229477	      0.75386483	      0.00000000	     -0.14137222	      0.00000388	    -26.96007230	      0.00004756	      0.00000000	      0.00000000	      0.00000000	      0.00000000	      0.00000000	      0.00000000	      0.00000000	      0.00000000	      0.00000000
    140.01700000	   -182.13833864	   1190.41838520	    101.11716289	      0.75436690	      0.00000000	     -0.14154203	      0.00000366	    -21.77251495	      0.00004817	      0.00000000	      0.00000000	      0.00000000	      0.00000000	      0.00000000	      0.00000000	      0.00000000	      0.00000000	      0.00000000
    140.01800000	   -198.13661606	   1200.58178150	     94.15496503	      0.75468996	      0.00000000	     -0.14173299	      0.00000348	    -14.71441284	      0.00004860	      0.00000000	      0.00000000	      0.00000000	      0.00000000	      0.00000000	      0.00000000	      0.00000000	      0.00000000	      0.00000000
    140.01900000	   -213.55525662	   1211.38018408	     83.17982122	      0.75472444	      0.00000000	     -0.14194440	      0.00000331	     -6.29221624	      0.00004891	      0.00000000	      0.00000000	      0.00000000	      0.00000000	      0.00000000	      0.00000000	      0.00000000	      0.00000000	      0.00000000
    140.02000000	   -227.02503153	   1222.56376525	     68.76801383	      0.75438209	      0.00000000	     -0.14217270	      0.00000317	      2.83671958	      0.00004916	      0.00000000	      0.00000000	      0.00000000	      0.00000000	      0.00000000	      0.00000000	      0.00000000	      0.00000000	      0.00000000
    140.02100000	   -237.41896345	   1233.90858609	     51.65358308	      0.75360289	      0.00000000	     -0.14241252	      0.00000304	     11.91529629	      0.00004938	      0.00000000	      0.00000000	      0.00000000	      0.00000000	      0.00000000	      0.00000000	      0.00000000	      0.00000000	      0.00000000
    140.02200000	   -243.94425406	   1245.23687927	     32.67336607	      0.75235901	      0.00000000	     -0.14265799	      0.00000291	     20.15033205	      0.00004964	      0.00000000	      0.00000000	      0.00000000	      0.00000000	      0.00000000	      0.00000000	      0.00000000	      0.00000000	      0.00000000
    140.02300000	   -246.19656448	   1256.42919432	     12.70646015	      0.75065563	      0.00000000	     -0.14290425	      0.00000279	     26.78307254	      0.00004997	      0.00000000	      0.00000000	      0.00000000	      0.00000000	      0.00000000	      0.00000000	      0.00000000	      0.00000000	      0.00000000
    140.02400000	   -244.17387704	   1267.42716277	     -7.38621760	      0.74852863	      0.00000000	     -0.14314835	      0.00000266	     31.16002754	      0.00005041	      0.00000000	      0.00000000	      0.00000000	      0.00000000	      0.00000000	      0.00000000	      0.00000000	      0.00000000	      0.00000000
    140.02500000	   -238.25138528	   1278.22715108	    -26.81689308	      0.74603967	      0.00000000	     -0.14338957	      0.00000252	     32.79723660	      0.00005099	      0.00000000	      0.00000000	      0.00000000	      0.00000000	      0.00000000	      0.00000000	      0.00000000	      0.00000000	      0.00000000
